<?xml version="1.0" encoding="utf-8"?>
<!-- Generator: Adobe Illustrator 28.1.0, SVG Export Plug-In . SVG Version: 6.00 Build 0)  -->
<svg version="1.1" id="Layer_1" xmlns="http://www.w3.org/2000/svg" xmlns:xlink="http://www.w3.org/1999/xlink" x="0px" y="0px"
	 viewBox="0 0 96 96" style="enable-background:new 0 0 96 96;" xml:space="preserve">
<style type="text/css">
	.st0{fill:url(#SVGID_1_);}
</style>
<linearGradient id="SVGID_1_" gradientUnits="userSpaceOnUse" x1="-9.3782" y1="73.648" x2="125.1161" y2="13.5338">
	<stop  offset="0" style="stop-color:#37007F"/>
	<stop  offset="1" style="stop-color:#C700D4"/>
</linearGradient>
<path class="st0" d="M25,71.2c-4.1-1-7.8-2.2-11.1-3.6c-1.7-0.7-3.4,1.2-2.5,2.8c3.1,5,7.1,9.3,11.9,12.7c1.3,0.9,3.2,0,3.2-1.6
	v-8.4C26.5,72.2,25.9,71.4,25,71.2z M60,76.2c-3.9,0.4-7.8,0.6-12,0.6s-8.1-0.2-12-0.6c-1.3-0.1-2.4,0.9-2.4,2.2v13.7
	c0,1,0.6,1.9,1.6,2.2C39.3,95.4,43.6,96,48,96s8.7-0.6,12.8-1.7c1-0.3,1.6-1.2,1.6-2.2V78.4C62.4,77.1,61.3,76.1,60,76.2z
	 M82.1,67.6c-3.3,1.4-7.1,2.7-11.1,3.6c-0.9,0.2-1.5,1-1.5,1.9v8.4c0,1.6,1.8,2.5,3.2,1.6c4.8-3.4,8.9-7.7,11.9-12.7
	C85.6,68.8,83.9,66.9,82.1,67.6z M84.6,25.6c-3.1-5-7.2-9.3-12-12.7c-1.3-0.9-3.2,0-3.2,1.6v8.4c0,0.9,0.6,1.7,1.5,1.9
	c4.1,1,7.8,2.2,11.1,3.6C83.9,29.1,85.6,27.2,84.6,25.6z M21.2,32.4C8.2,36.1,0,42.3,0,48s8.2,11.9,21.2,15.6
	c1.4,0.4,2.8-0.7,2.8-2.1v-27C24,33.1,22.6,32,21.2,32.4z M23.4,12.9c-4.8,3.4-8.9,7.7-11.9,12.7c-1,1.6,0.7,3.6,2.5,2.8
	c3.3-1.4,7.1-2.7,11.1-3.6c0.9-0.2,1.5-1,1.5-1.9v-8.4C26.5,12.8,24.7,12,23.4,12.9z M60.8,1.7C56.7,0.6,52.4,0,48,0
	s-8.7,0.6-12.8,1.7c-1,0.3-1.6,1.2-1.6,2.2v13.7c0,1.3,1.1,2.3,2.4,2.2c3.9-0.4,7.8-0.6,12-0.6s8.1,0.2,12,0.6
	c1.3,0.1,2.4-0.9,2.4-2.2V3.9C62.4,2.9,61.8,2,60.8,1.7z M63.3,25.3c-4.9-0.6-10-0.9-15.3-0.9s-10.5,0.3-15.3,0.9
	c-1.4,0.2-2.4,1.3-2.4,2.7v40c0,1.4,1,2.6,2.4,2.7c4.9,0.6,10,0.9,15.3,0.9s10.5-0.3,15.3-0.9c1.4-0.2,2.4-1.3,2.4-2.7V28
	C65.7,26.6,64.7,25.4,63.3,25.3z M58.2,57.4c0,1.3-1.1,2.4-2.4,2.4h-3.2c-0.9,0-1.7-0.5-2.1-1.3L47.2,52c-0.6-1.2-2.4-0.8-2.4,0.6
	v4.8c0,1.3-1.1,2.4-2.4,2.4h-2.3c-1.3,0-2.4-1.1-2.4-2.4V38.6c0-1.3,1.1-2.4,2.4-2.4h3.2c0.9,0,1.7,0.5,2.1,1.3l3.2,6.4
	c0.6,1.2,2.4,0.8,2.4-0.6v-4.8c0-1.3,1.1-2.4,2.4-2.4h2.3c1.3,0,2.4,1.1,2.4,2.4V57.4z M74.8,32.4C73.4,32,72,33.1,72,34.5v27
	c0,1.4,1.4,2.5,2.8,2.1C87.8,59.9,96,53.7,96,48S87.8,36.1,74.8,32.4z"/>
</svg>
